<svg width="142" height="32" viewBox="0 0 142 32" xmlns="http://www.w3.org/2000/svg"><title>Slice 1</title><path d="M30.5481255 27.0932631c0 .1164721-.0945754.2110474-.2110475.2110474h-2.0531703c-.1164721 0-.2105816-.0945753-.2105816-.2110474v-11.203685c0-.1164721.0941095-.2105815.2105816-.2105815h2.0531703c.1164721 0 .2110475.0941094.2110475.2105815v11.203685zm8.4908166-11.6062126c2.1593928 0 3.6008516.9834905 4.5042093 2.1808238V.41276455c0-.33730322-.3829603-.5315787-.6550391-.33264434L21.5676601 15.6789966h.5651227c2.2139018 0 3.3464766 1.411176 3.3464766 2.9625845 0 1.2047875-.6280176 2.0946344-1.4722075 2.4901736-.142096.0661562-.1365053.26742.008386.3270537.9839564.405323 1.6907091 1.4596285 1.6907091 2.6905057 0 1.7605924-1.1502785 3.1549964-3.3814182 3.1549964h-6.0793781c-.1271875 0-.2301489-.1029613-.2301489-.2301489v-7.3344815L.14611017 31.3458926C-.13016167 31.5709168.01007075 32 .35995297 32H43.1811561c.1998661 0 .3619953-.1621292.3619953-.3619953v-5.8725236c-1.1446879 1.0738728-2.6518369 1.7480133-4.5042093 1.7480133-3.4163599 0-6.205168-2.3532024-6.205168-6.0136878 0-3.6772574 2.7888081-6.0127561 6.205168-6.0127561zm-20.3186989 4.8103912h2.8726681c.8367356 0 1.3594624-.4710132 1.3594624-1.2201618 0-.7146728-.5227268-1.2201617-1.3594624-1.2201617h-2.8726681c-.1267216 0-.229683.1029613-.229683.2301488v1.9804917c0 .1267217.1029614.229683.229683.229683zm0 4.8278155h2.9770271c.9238567 0 1.4815252-.4882511 1.4815252-1.3245208 0-.7319108-.5227268-1.3249867-1.4815252-1.3249867h-2.9770271c-.1267216 0-.229683.1029613-.229683.2301489v2.1896756c0 .1267216.1029614.229683.229683.229683zm22.946496-6.1037907c-.5609297-.7398308-1.4973655-1.3384974-2.6280767-1.3384974-2.1263148 0-3.6600195 1.6212917-3.6600195 3.8170239 0 2.196198 1.5337047 3.8170238 3.6600195 3.8170238.9825587 0 1.9008248-.413243 2.3914053-.8302131.0433277-.0372711.0661562-.0917801.0661562-.1490843v-1.1195299c0-.1020296-.0824623-.1844918-.1844918-.1844918h-2.6378603c-.1355735 0-.2455232-.1099497-.2455232-.2455232v-1.6702101c0-.1355735.1099497-.2455232.2455232-.2455232h4.8694658v-2.6308719l-1.5593285.8530417c-.1052908.0573043-.2445914.0223626-.31727-.0731445zm53.6876314 8.1364153v-8.8393012l-3.5309684 8.9143092c-.0149085.0372711-.0507819.0619632-.0913142.0619632h-.7379672c-.0400664 0-.0759398-.0246921-.0908483-.0614973l-3.5486721-8.9147751v8.8393012c0 .0754739-.0614973.1369712-.1369712.1369712H85.451912c-.0754739 0-.1369712-.0614973-.1369712-.1369712V15.8065102c0-.0759398.0614973-.1369712.1369712-.1369712h2.551671c.1132108 0 .2147745.0689515.2567045.1742423l3.1028169 7.9774076 3.0855791-7.9769417c.041464-.1052908.1434936-.1747082.2571704-.1747082h2.551205c.0754739 0 .1369712.0610314.1369712.1369712v11.3513716c0 .0754739-.0614973.1369712-.1369712.1369712h-1.7657171c-.075474 0-.1369712-.0614973-.1369712-.1369712zm26.3044334-5.7157056c0-3.5901362 2.57217-6.0127561 5.884637-6.0127561 2.156131 0 3.542615 1.1013603 4.379817 2.4188928.061497.0969048.02609.2226946-.074542.2776695l-1.323123.7202635c-.086656.0475206-.196605.0149084-.249251-.0684856-.564191-.8959035-1.603588-1.5360342-2.732901-1.5360342-2.219493 0-3.86734 1.7428886-3.86734 4.2004501 0 2.4230857 1.647847 4.200916 3.86734 4.200916 1.129779 0 2.170108-.6564368 2.733833-1.5406931.05218-.0815304.160732-.1141426.246455-.0694173l1.332907.6913784c.105756.0545089.142096.1821624.076405.2818625-.865154 1.3179983-2.235798 2.4491754-4.3896 2.4491754-3.312467 0-5.884637-2.4398577-5.884637-6.0132219zm12.279049 5.6474995V15.8743436c0-.1132109.09178-.2049909.20499-.2049909h7.555313c.113211 0 .204991.09178.204991.2049909v1.3850863c0 .1132109-.09178.2049909-.204991.2049909h-5.515653c-.113211 0-.204991.09178-.204991.2049909v2.5880102c0 .1132109.09178.2049909.204991.2049909h5.394056c.113211 0 .204991.0917801.204991.2049909V22.05249c0 .1132109-.09178.204991-.204991.204991h-5.394056c-.113211 0-.204991.09178-.204991.2049909v2.8321357c0 .1132109.09178.2049909.204991.2049909h5.515653c.113211 0 .204991.09178.204991.2054568v1.3846204c0 .1132109-.09178.2049909-.204991.2049909h-7.555313c-.11321 0-.20499-.09178-.20499-.2049909zm-18.556523-4.0328234c-.037737-.0633608-.105757-.1024954-.179367-.1024954h-1.712606c-.114608 0-.208252.0936435-.208252.208718v3.9232464c0 .1150745-.093178.2082522-.208252.2082522h-1.622689c-.115075 0-.208253-.0931777-.208253-.2082522V15.8779775c0-.1150744.093178-.208718.208253-.208718h4.898816c2.300557 0 3.816558 1.4815252 3.816558 3.6427816 0 1.9138697-1.176368 3.0278089-2.477594 3.3557944-.140699.0354075-.212911.1886848-.13604.3116793.486388.7771019 1.964186 3.1377586 2.502287 3.9977886.086655.1383689-.013511.3172701-.177503.3172701h-1.875201c-.073611 0-.14163-.0386688-.179367-.1020296l-2.44079-4.1356916zm2.692835-3.762049c0-1.1153369-.836735-1.8304757-1.986548-1.8304757h-2.59826c-.114608 0-.208252.0936436-.208252.208718v3.277991c0 .1150745.093644.208718.208252.208718h2.59826c1.149813 0 1.986548-.7323766 1.986548-1.8649513zm-17.695887 7.7897011V15.8798877c0-.1164721.09411-.2105816.210116-.2105816h7.545063c.116006 0 .210116.0941095.210116.2105816v1.3743708c0 .1160062-.09411.2101157-.210116.2101157h-5.505403c-.116007 0-.210116.0941095-.210116.2105816v2.5772948c0 .1160062.094109.2101156.210116.2101156h5.383806c.116007 0 .210116.0941095.210116.2101157v1.3748368c0 .1160062-.094109.2101157-.210116.2101157h-5.383806c-.116007 0-.210116.0941094-.210116.2101156v2.8218863c0 .1160062.094109.2101156.210116.2101156h5.505403c.116006 0 .210116.0941095.210116.2105816v1.3743709c0 .1160062-.09411.2101157-.210116.2101157h-7.545063c-.116006 0-.210116-.0941095-.210116-.2101157zm-20.080909.0733774v-8.8393012l-3.5309684 8.9143092c-.0149084.0372711-.0507818.0619632-.0913141.0619632h-.7379673c-.0400664 0-.0759398-.0246921-.0908482-.0614973l-3.5486722-8.9147751v8.8393012c0 .0754739-.0614972.1369712-.1369712.1369712h-1.7657171c-.0754739 0-.1369712-.0614973-.1369712-.1369712V15.8065102c0-.0759398.0614973-.1369712.1369712-.1369712h2.5516709c.1132109 0 .2147746.0689515.2567045.1742423l3.102817 7.9774076 3.085579-7.9769417c.0414641-.1052908.1434937-.1747082.2571705-.1747082h2.551205c.0754739 0 .1369712.0610314.1369712.1369712v11.3513716c0 .0754739-.0614973.1369712-.1369712.1369712h-1.7657172c-.0754739 0-.1369712-.0614973-.1369712-.1369712zm-23.5358448-5.6673464c0-2.8922353 1.6501769-5.1420106 4.1501342-5.8096287 4.2242103-1.1283818 8.1013338 2.8298063 7.1826019 7.2468945-.5641909 2.7119366-2.7277768 4.5759562-5.5939224 4.5759562-3.365578 0-5.7388137-2.5446826-5.7388137-6.013222zm9.458001 0c0-2.404916-1.4642873-4.2004501-3.7191873-4.2004501-2.271672 0-3.7191873 1.7955341-3.7191873 4.2004501 0 2.3881441 1.4475153 4.200916 3.7191873 4.200916 2.2549 0 3.7191873-1.8127719 3.7191873-4.200916zm-20.8660246 0c0-3.5901362 2.5721701-6.012756 5.8846368-6.012756 2.1565975 0 3.5426156 1.1013602 4.3798171 2.4188927.0614973.0969048.0260898.2226947-.0745421.2776695l-1.3231232.7202635c-.0866552.0475206-.1966049.0149084-.2492503-.0684856-.5641909-.8959035-1.603588-1.5360342-2.7329015-1.5360342-2.2194925 0-3.8673399 1.7428887-3.8673399 4.2004501 0 2.4230857 1.6478474 4.200916 3.8673399 4.200916 1.1297794 0 2.1701083-.6564368 2.7338333-1.5406931.0521795-.0815304.1607315-.1141426.246455-.0694173l1.3329068.6913784c.1057566.0545089.1420959.1821624.0764057.2818625-.8651549 1.3179984-2.2357986 2.4491755-4.3896008 2.4491755-3.3124667 0-5.8846368-2.4398577-5.8846368-6.013222z" fill="#34313F" fill-rule="evenodd"/></svg>
